# xmcd
#
# Track frame offsets:
#	150
#	19040
#	33954
#	51482
#	66299
#	81511
#	97271
#	114583
#	133897
#	150108
#	169144
#	183965
#	203107
#
# Disc length: 2908 seconds
#
# Revision: 3
# Processed by: cddbd v1.5.2PL0 Copyright (c) Steve Scherf et al.
# Submitted via: audiograbber 1.83.01
#
DISCID=b20b5a0d
DTITLE=Münchener Freiheit - Eigene Wege
DYEAR=2009
DGENRE=Schlager
TTITLE0=Sie liebt dich wie du bist
TTITLE1=Ein Augenblick in rot
TTITLE2=Unterwegs in die Freiheit
TTITLE3=Good Bye
TTITLE4=Wenn die Sonne ruft
TTITLE5=Eigene Wege
TTITLE6=Helden
TTITLE7=Sexy und durchtrieben
TTITLE8=Mein Herz bleibt stehn
TTITLE9=Die Liebe zählt
TTITLE10=Aus der Nummer raus
TTITLE11=Durch Himmel und Hölle
TTITLE12=Nur noch du und ich
EXTD=
EXTT0=
EXTT1=
EXTT2=
EXTT3=
EXTT4=
EXTT5=
EXTT6=
EXTT7=
EXTT8=
EXTT9=
EXTT10=
EXTT11=
EXTT12=
PLAYORDER=
